<svg xmlns="http://www.w3.org/2000/svg" viewBox="0 0 820 520" width="820" height="520" font-family="sans-serif">

  <!-- Background -->
  <rect width="820" height="520" fill="#f8fafc"/>

  <!-- ===================== MOBILE ===================== -->
  <text x="30" y="28" font-size="11" font-weight="600" fill="#6b7280" text-anchor="middle" transform="translate(105,0)">Mobile (375px)</text>

  <!-- Device frame -->
  <rect x="30" y="38" width="210" height="460" rx="10" fill="white" stroke="#cbd5e1" stroke-width="1.5"/>

  <!-- Header -->
  <rect x="30" y="38" width="210" height="36" rx="10" fill="white" stroke="#cbd5e1" stroke-width="1.5"/>
  <rect x="30" y="56" width="210" height="18" fill="white"/>
  <rect x="44" y="48" width="18" height="18" rx="4" fill="#2563eb"/>
  <rect x="68" y="53" width="50" height="8" rx="4" fill="#e2e8f0"/>

  <!-- Hero image -->
  <rect x="30" y="74" width="210" height="52" fill="#dbeafe"/>
  <text x="135" y="104" font-size="10" fill="#3b82f6" text-anchor="middle" font-weight="500">Hero image</text>

  <!-- Tagline lines -->
  <rect x="44" y="134" width="140" height="7" rx="3" fill="#e2e8f0"/>
  <rect x="44" y="147" width="100" height="7" rx="3" fill="#e2e8f0"/>

  <!-- Category tabs label -->
  <text x="44" y="172" font-size="7" fill="#9ca3af" font-weight="600">CATEGORY TABS</text>
  <rect x="44" y="176" width="42" height="13" rx="6" fill="#bfdbfe" stroke="#93c5fd" stroke-width="1"/>
  <rect x="91" y="176" width="42" height="13" rx="6" fill="#e2e8f0" stroke="#cbd5e1" stroke-width="1"/>
  <rect x="138" y="176" width="42" height="13" rx="6" fill="#e2e8f0" stroke="#cbd5e1" stroke-width="1"/>
  <rect x="185" y="176" width="42" height="13" rx="6" fill="#e2e8f0" stroke="#cbd5e1" stroke-width="1"/>

  <!-- Divider -->
  <line x1="30" y1="197" x2="240" y2="197" stroke="#e2e8f0" stroke-width="1"/>

  <!-- Muscle filter label -->
  <text x="44" y="212" font-size="7" fill="#9ca3af" font-weight="600">MUSCLE GROUP</text>
  <rect x="44" y="216" width="32" height="11" rx="5" fill="#e2e8f0" stroke="#cbd5e1" stroke-width="1"/>
  <rect x="81" y="216" width="32" height="11" rx="5" fill="#e2e8f0" stroke="#cbd5e1" stroke-width="1"/>
  <rect x="118" y="216" width="32" height="11" rx="5" fill="#e2e8f0" stroke="#cbd5e1" stroke-width="1"/>
  <rect x="155" y="216" width="32" height="11" rx="5" fill="#bfdbfe" stroke="#93c5fd" stroke-width="1"/>
  <rect x="192" y="216" width="32" height="11" rx="5" fill="#e2e8f0" stroke="#cbd5e1" stroke-width="1"/>

  <!-- Divider -->
  <line x1="30" y1="235" x2="240" y2="235" stroke="#e2e8f0" stroke-width="1"/>

  <!-- Exercise cards label -->
  <text x="44" y="250" font-size="7" fill="#9ca3af" font-weight="600">EXERCISE CARDS</text>

  <!-- Card 1 -->
  <rect x="44" y="254" width="182" height="50" rx="6" fill="white" stroke="#e2e8f0" stroke-width="1"/>
  <rect x="54" y="262" width="70" height="7" rx="3" fill="#e2e8f0"/>
  <rect x="54" y="274" width="120" height="6" rx="3" fill="#e2e8f0"/>
  <rect x="54" y="284" width="160" height="13" rx="4" fill="#e2e8f0" stroke="#cbd5e1" stroke-width="1"/>
  <text x="134" y="294" font-size="7" fill="#6b7280" text-anchor="middle">+ Add to plan</text>

  <!-- Card 2 -->
  <rect x="44" y="312" width="182" height="50" rx="6" fill="white" stroke="#e2e8f0" stroke-width="1"/>
  <rect x="54" y="320" width="70" height="7" rx="3" fill="#e2e8f0"/>
  <rect x="54" y="332" width="120" height="6" rx="3" fill="#e2e8f0"/>
  <rect x="54" y="342" width="160" height="13" rx="4" fill="#e2e8f0" stroke="#cbd5e1" stroke-width="1"/>
  <text x="134" y="352" font-size="7" fill="#6b7280" text-anchor="middle">+ Add to plan</text>

  <!-- Divider -->
  <line x1="30" y1="370" x2="240" y2="370" stroke="#e2e8f0" stroke-width="1"/>

  <!-- My Plan panel -->
  <rect x="30" y="370" width="210" height="100" fill="#f8fafc"/>
  <text x="44" y="385" font-size="7" fill="#9ca3af" font-weight="600">MY PLAN</text>
  <rect x="44" y="390" width="182" height="16" rx="4" fill="white" stroke="#e2e8f0" stroke-width="1"/>
  <rect x="44" y="411" width="182" height="16" rx="4" fill="white" stroke="#e2e8f0" stroke-width="1"/>
  <rect x="44" y="435" width="182" height="18" rx="5" fill="#bfdbfe" stroke="#93c5fd" stroke-width="1"/>
  <text x="135" y="447" font-size="8" fill="#1d4ed8" text-anchor="middle" font-weight="500">Print Plan</text>

  <!-- Footer -->
  <rect x="30" y="470" width="210" height="28" rx="10" fill="white" stroke="#cbd5e1" stroke-width="1.5"/>
  <rect x="30" y="470" width="210" height="15" fill="white"/>
  <line x1="30" y1="470" x2="240" y2="470" stroke="#e2e8f0" stroke-width="1"/>
  <rect x="80" y="479" width="80" height="6" rx="3" fill="#e2e8f0"/>


  <!-- ===================== DESKTOP ===================== -->
  <text x="530" y="28" font-size="11" font-weight="600" fill="#6b7280" text-anchor="middle">Desktop (1200px+)</text>

  <!-- Device frame -->
  <rect x="280" y="38" width="510" height="460" rx="10" fill="white" stroke="#cbd5e1" stroke-width="1.5"/>

  <!-- Header -->
  <rect x="280" y="38" width="510" height="36" rx="10" fill="white" stroke="#cbd5e1" stroke-width="1.5"/>
  <rect x="280" y="56" width="510" height="18" fill="white"/>
  <rect x="296" y="48" width="18" height="18" rx="4" fill="#2563eb"/>
  <rect x="320" y="53" width="50" height="8" rx="4" fill="#e2e8f0"/>
  <rect x="660" y="53" width="30" height="8" rx="4" fill="#e2e8f0"/>
  <rect x="696" y="53" width="40" height="8" rx="4" fill="#e2e8f0"/>
  <rect x="742" y="53" width="35" height="8" rx="4" fill="#e2e8f0"/>

  <!-- Hero image -->
  <rect x="280" y="74" width="510" height="60" fill="#dbeafe"/>
  <text x="535" y="108" font-size="11" fill="#3b82f6" text-anchor="middle" font-weight="500">Hero image + tagline</text>

  <!-- Filter bar -->
  <rect x="280" y="134" width="510" height="32" fill="#f8fafc"/>
  <line x1="280" y1="134" x2="790" y2="134" stroke="#e2e8f0" stroke-width="1"/>
  <line x1="280" y1="166" x2="790" y2="166" stroke="#e2e8f0" stroke-width="1"/>
  <text x="296" y="154" font-size="7" fill="#9ca3af">TYPE:</text>
  <rect x="320" y="143" width="42" height="13" rx="6" fill="#bfdbfe" stroke="#93c5fd" stroke-width="1"/>
  <rect x="367" y="143" width="42" height="13" rx="6" fill="#e2e8f0" stroke="#cbd5e1" stroke-width="1"/>
  <rect x="414" y="143" width="42" height="13" rx="6" fill="#e2e8f0" stroke="#cbd5e1" stroke-width="1"/>
  <rect x="461" y="143" width="42" height="13" rx="6" fill="#e2e8f0" stroke="#cbd5e1" stroke-width="1"/>
  <text x="518" y="154" font-size="7" fill="#9ca3af">MUSCLE:</text>
  <rect x="556" y="143" width="32" height="13" rx="6" fill="#e2e8f0" stroke="#cbd5e1" stroke-width="1"/>
  <rect x="593" y="143" width="32" height="13" rx="6" fill="#e2e8f0" stroke="#cbd5e1" stroke-width="1"/>
  <rect x="630" y="143" width="32" height="13" rx="6" fill="#bfdbfe" stroke="#93c5fd" stroke-width="1"/>
  <rect x="667" y="143" width="32" height="13" rx="6" fill="#e2e8f0" stroke="#cbd5e1" stroke-width="1"/>
  <rect x="704" y="143" width="32" height="13" rx="6" fill="#e2e8f0" stroke="#cbd5e1" stroke-width="1"/>

  <!-- Main layout divider -->
  <line x1="645" y1="166" x2="645" y2="468" stroke="#e2e8f0" stroke-width="1"/>

  <!-- Exercise library area -->
  <text x="296" y="184" font-size="7" fill="#9ca3af" font-weight="600">EXERCISE LIBRARY (2-column grid)</text>

  <!-- Row 1 cards -->
  <rect x="296" y="190" width="160" height="52" rx="6" fill="white" stroke="#e2e8f0" stroke-width="1"/>
  <rect x="306" y="199" width="60" height="7" rx="3" fill="#e2e8f0"/>
  <rect x="306" y="211" width="110" height="6" rx="3" fill="#e2e8f0"/>
  <rect x="306" y="221" width="138" height="13" rx="4" fill="#e2e8f0" stroke="#cbd5e1" stroke-width="1"/>
  <text x="375" y="231" font-size="7" fill="#6b7280" text-anchor="middle">+ Add</text>

  <rect x="466" y="190" width="160" height="52" rx="6" fill="white" stroke="#e2e8f0" stroke-width="1"/>
  <rect x="476" y="199" width="60" height="7" rx="3" fill="#e2e8f0"/>
  <rect x="476" y="211" width="110" height="6" rx="3" fill="#e2e8f0"/>
  <rect x="476" y="221" width="138" height="13" rx="4" fill="#e2e8f0" stroke="#cbd5e1" stroke-width="1"/>
  <text x="545" y="231" font-size="7" fill="#6b7280" text-anchor="middle">+ Add</text>

  <!-- Row 2 cards -->
  <rect x="296" y="250" width="160" height="52" rx="6" fill="white" stroke="#e2e8f0" stroke-width="1"/>
  <rect x="306" y="259" width="60" height="7" rx="3" fill="#e2e8f0"/>
  <rect x="306" y="271" width="110" height="6" rx="3" fill="#e2e8f0"/>
  <rect x="306" y="281" width="138" height="13" rx="4" fill="#e2e8f0" stroke="#cbd5e1" stroke-width="1"/>
  <text x="375" y="291" font-size="7" fill="#6b7280" text-anchor="middle">+ Add</text>

  <rect x="466" y="250" width="160" height="52" rx="6" fill="white" stroke="#e2e8f0" stroke-width="1"/>
  <rect x="476" y="259" width="60" height="7" rx="3" fill="#e2e8f0"/>
  <rect x="476" y="271" width="110" height="6" rx="3" fill="#e2e8f0"/>
  <rect x="476" y="281" width="138" height="13" rx="4" fill="#e2e8f0" stroke="#cbd5e1" stroke-width="1"/>
  <text x="545" y="291" font-size="7" fill="#6b7280" text-anchor="middle">+ Add</text>

  <!-- Row 3 cards -->
  <rect x="296" y="310" width="160" height="52" rx="6" fill="white" stroke="#e2e8f0" stroke-width="1"/>
  <rect x="306" y="319" width="60" height="7" rx="3" fill="#e2e8f0"/>
  <rect x="306" y="331" width="110" height="6" rx="3" fill="#e2e8f0"/>
  <rect x="306" y="341" width="138" height="13" rx="4" fill="#e2e8f0" stroke="#cbd5e1" stroke-width="1"/>
  <text x="375" y="351" font-size="7" fill="#6b7280" text-anchor="middle">+ Add</text>

  <rect x="466" y="310" width="160" height="52" rx="6" fill="white" stroke="#e2e8f0" stroke-width="1"/>
  <rect x="476" y="319" width="60" height="7" rx="3" fill="#e2e8f0"/>
  <rect x="476" y="331" width="110" height="6" rx="3" fill="#e2e8f0"/>
  <rect x="476" y="341" width="138" height="13" rx="4" fill="#e2e8f0" stroke="#cbd5e1" stroke-width="1"/>
  <text x="545" y="351" font-size="7" fill="#6b7280" text-anchor="middle">+ Add</text>

  <!-- Plan sidebar -->
  <rect x="645" y="166" width="145" height="302" fill="#f8fafc"/>
  <text x="659" y="184" font-size="7" fill="#9ca3af" font-weight="600">MY PLAN</text>
  <rect x="659" y="190" width="117" height="18" rx="4" fill="white" stroke="#e2e8f0" stroke-width="1"/>
  <rect x="659" y="213" width="117" height="18" rx="4" fill="white" stroke="#e2e8f0" stroke-width="1"/>
  <rect x="659" y="236" width="117" height="18" rx="4" fill="white" stroke="#e2e8f0" stroke-width="1"/>
  <rect x="659" y="259" width="117" height="18" rx="4" fill="white" stroke="#e2e8f0" stroke-width="1"/>
  <rect x="659" y="430" width="117" height="22" rx="5" fill="#bfdbfe" stroke="#93c5fd" stroke-width="1"/>
  <text x="717" y="444" font-size="8" fill="#1d4ed8" text-anchor="middle" font-weight="500">Print Plan</text>

  <!-- Footer -->
  <rect x="280" y="468" width="510" height="30" rx="10" fill="white" stroke="#cbd5e1" stroke-width="1.5"/>
  <rect x="280" y="468" width="510" height="15" fill="white"/>
  <line x1="280" y1="468" x2="790" y2="468" stroke="#e2e8f0" stroke-width="1"/>
  <rect x="460" y="478" width="150" height="6" rx="3" fill="#e2e8f0"/>

</svg>
